<svg xmlns="http://www.w3.org/2000/svg" viewBox="0 0 120 120" fill="none">
  <!-- Background circle -->
  <circle cx="60" cy="60" r="58" fill="#14532d" stroke="#16a34a" stroke-width="2"/>
  <!-- Sun -->
  <circle cx="78" cy="32" r="12" fill="#f59e0b" opacity="0.9"/>
  <!-- Mountain back -->
  <polygon points="15,88 45,42 75,88" fill="#15803d"/>
  <!-- Mountain front -->
  <polygon points="40,88 70,38 100,88" fill="#16a34a"/>
  <!-- Snow cap -->
  <polygon points="70,38 62,52 78,52" fill="#ffffff" opacity="0.9"/>
  <!-- Bird silhouette -->
  <path d="M28,35 Q35,28 40,32 Q35,30 32,35 Q38,30 44,34" stroke="#ffffff" stroke-width="1.8" fill="none" stroke-linecap="round"/>
  <path d="M20,40 Q27,33 32,37 Q27,35 24,40 Q30,35 36,39" stroke="#ffffff" stroke-width="1.5" fill="none" stroke-linecap="round" opacity="0.7"/>
  <!-- Water waves -->
  <path d="M12,90 Q22,86 32,90 Q42,94 52,90 Q62,86 72,90 Q82,94 92,90 Q102,86 108,90" stroke="#0d9488" stroke-width="2.5" fill="none" stroke-linecap="round"/>
  <path d="M16,96 Q26,92 36,96 Q46,100 56,96 Q66,92 76,96 Q86,100 96,96 Q104,93 108,96" stroke="#14b8a6" stroke-width="2" fill="none" stroke-linecap="round" opacity="0.7"/>
</svg>
